<?xml version="1.0" encoding="utf-8"?>
<svg viewBox="24.622 4.8 449.382 443.578" xmlns="http://www.w3.org/2000/svg">
  <g transform="matrix(1, 0, 0, 1, 419.689556, 28.703215)">
    <g transform="matrix(1.014493, 0, 0, 1, -419.605164, -19.805479)" style="">
      <g id="svgg" transform="matrix(1, 0, 0, 1, 70.244705, -8.502264)">
        <path id="path0" d="M173.443 133.638 C 172.857 134.099,172.006 135.204,171.552 136.094 C 170.700 137.764,170.701 138.336,171.564 142.600 C 171.787 143.700,172.136 145.605,172.341 146.834 C 172.927 150.352,173.652 153.728,174.010 154.600 C 174.190 155.040,174.443 156.430,174.571 157.689 C 174.699 158.948,175.092 161.018,175.443 162.289 C 175.795 163.560,176.311 166.130,176.591 168.000 C 176.871 169.870,177.392 172.570,177.748 174.000 C 178.104 175.430,178.574 177.770,178.793 179.200 C 179.012 180.630,179.358 182.520,179.562 183.400 C 179.766 184.280,180.140 186.170,180.392 187.600 C 180.645 189.030,181.019 190.753,181.225 191.428 C 181.431 192.104,181.600 193.151,181.600 193.755 C 181.600 194.359,181.768 195.166,181.973 195.550 C 182.178 195.933,182.545 197.496,182.788 199.023 C 183.031 200.550,183.371 202.655,183.543 203.700 C 183.908 205.913,183.807 205.945,178.877 205.190 C 177.404 204.964,174.040 204.598,171.400 204.377 C 163.040 203.675,159.030 203.268,158.000 203.017 C 157.450 202.884,154.930 202.592,152.400 202.369 C 145.759 201.785,141.394 201.352,134.600 200.605 C 126.117 199.671,122.537 199.316,116.600 198.816 C 113.740 198.575,110.770 198.204,110.000 197.991 C 109.230 197.779,107.621 197.603,106.424 197.602 C 105.227 197.601,103.247 197.425,102.024 197.210 C 100.801 196.996,97.460 196.617,94.600 196.369 C 91.740 196.121,88.050 195.758,86.400 195.563 C 84.750 195.367,80.340 194.928,76.600 194.588 C 72.860 194.248,68.630 193.805,67.200 193.604 C 65.770 193.403,61.720 193.036,58.200 192.788 C 54.680 192.541,51.170 192.179,50.400 191.984 C 45.921 190.851,40.887 190.687,38.976 191.611 C 35.276 193.403,35.603 188.058,35.601 246.686 L 35.600 298.372 36.847 299.792 C 37.676 300.736,38.681 301.360,39.847 301.653 C 41.054 301.957,41.600 302.306,41.600 302.772 C 41.600 303.982,43.113 306.620,44.069 307.075 C 46.270 308.125,47.651 308.476,48.497 308.203 C 48.994 308.042,52.550 307.661,56.400 307.356 C 60.250 307.051,64.570 306.628,66.000 306.416 C 67.430 306.204,71.840 305.739,75.800 305.382 C 79.760 305.025,84.260 304.581,85.800 304.396 C 87.340 304.210,91.030 303.858,94.000 303.613 C 96.970 303.367,100.168 302.994,101.106 302.783 C 102.044 302.573,103.862 302.400,105.146 302.400 C 106.430 302.400,108.002 302.225,108.640 302.010 C 109.278 301.796,112.230 301.424,115.200 301.184 C 121.297 300.691,124.783 300.350,133.400 299.402 C 141.037 298.562,145.394 298.133,151.400 297.633 C 154.040 297.413,156.650 297.116,157.200 296.973 C 158.263 296.698,162.261 296.289,170.400 295.624 C 173.150 295.400,176.495 295.032,177.833 294.808 C 181.781 294.146,182.546 294.232,182.209 295.300 C 182.052 295.795,181.774 297.010,181.591 298.000 C 181.100 300.645,180.078 305.537,179.585 307.600 C 179.348 308.590,178.984 310.480,178.775 311.800 C 178.566 313.120,178.294 314.470,178.169 314.800 C 177.859 315.623,177.254 318.417,176.611 322.000 C 176.314 323.650,175.777 326.170,175.417 327.600 C 175.057 329.030,174.602 331.190,174.406 332.400 C 174.070 334.475,172.736 340.921,172.005 344.000 C 170.105 352.006,168.504 351.200,186.314 351.200 L 201.000 351.200 206.600 347.223 C 209.680 345.036,212.779 342.831,213.488 342.323 C 214.196 341.816,215.366 340.986,216.088 340.480 C 216.809 339.973,221.990 336.341,227.600 332.408 C 233.210 328.474,238.379 324.839,239.088 324.328 C 239.796 323.818,240.966 322.986,241.688 322.480 C 247.750 318.228,266.450 305.088,267.400 304.412 C 268.060 303.943,273.820 299.893,280.200 295.412 C 286.580 290.932,292.340 286.879,293.000 286.406 C 293.660 285.933,300.050 281.434,307.200 276.408 C 330.831 259.798,332.450 258.650,333.290 257.922 C 333.748 257.525,334.254 257.200,334.415 257.200 C 334.576 257.200,335.106 256.218,335.593 255.017 C 336.944 251.688,336.010 249.516,331.900 246.430 C 330.635 245.481,329.600 244.552,329.600 244.366 C 329.600 243.182,327.434 241.437,311.600 229.862 C 309.510 228.334,307.049 226.525,306.132 225.842 C 305.215 225.159,301.891 222.710,298.745 220.400 C 295.600 218.090,291.400 214.997,289.413 213.526 C 287.426 212.055,285.080 210.331,284.200 209.693 C 283.320 209.055,280.800 207.209,278.600 205.589 C 276.400 203.969,273.340 201.718,271.800 200.586 C 270.260 199.455,266.930 197.002,264.400 195.137 C 260.172 192.019,250.118 184.635,242.800 179.275 C 241.150 178.066,239.049 176.520,238.132 175.838 C 237.215 175.157,233.891 172.710,230.745 170.400 C 227.600 168.090,223.400 164.997,221.413 163.526 C 219.426 162.055,217.080 160.331,216.200 159.693 C 215.320 159.055,212.800 157.209,210.600 155.589 C 208.400 153.969,205.340 151.719,203.800 150.588 C 202.260 149.457,198.210 146.472,194.800 143.954 C 185.442 137.044,181.641 134.273,180.465 133.502 C 178.877 132.462,174.839 132.540,173.443 133.638 M200.913 161.531 C 209.541 167.874,232.350 184.645,251.600 198.800 C 270.850 212.956,292.920 229.183,300.644 234.860 C 308.368 240.537,314.908 245.448,315.178 245.774 C 315.947 246.700,315.445 247.166,308.400 252.058 C 305.596 254.005,235.673 303.219,198.800 329.199 C 184.903 338.990,184.858 339.018,184.343 338.503 C 183.948 338.108,185.951 327.919,191.791 300.600 C 197.768 272.643,199.468 275.061,175.600 277.578 C 162.910 278.916,155.924 279.649,150.800 280.179 C 119.173 283.454,85.614 286.949,79.600 287.596 C 75.530 288.033,70.310 288.572,68.000 288.793 C 65.690 289.014,60.560 289.553,56.600 289.990 C 47.002 291.051,46.159 291.043,45.852 289.900 C 45.319 287.911,45.575 203.387,46.117 202.646 C 46.607 201.976,46.935 201.972,52.417 202.568 C 55.598 202.913,60.000 203.381,62.200 203.608 C 69.574 204.367,84.960 205.968,89.000 206.396 C 95.488 207.084,111.602 208.749,120.000 209.600 C 124.290 210.034,129.330 210.572,131.200 210.795 C 133.070 211.018,137.390 211.473,140.800 211.807 C 144.210 212.141,148.620 212.594,150.600 212.815 C 161.916 214.077,189.670 216.876,191.200 216.910 C 193.354 216.957,194.915 216.053,195.621 214.350 C 196.198 212.955,196.807 216.396,189.158 177.800 C 183.693 150.218,183.657 150.000,184.613 150.000 C 184.951 150.000,192.286 155.189,200.913 161.531 " stroke="none" fill="#050404" fill-rule="evenodd"/>
        <path id="path1" d="M185.200 151.951 C 185.200 152.348,188.955 171.640,189.570 174.400 C 190.274 177.561,196.754 210.968,196.824 211.800 C 197.022 214.126,196.741 214.953,195.247 216.447 C 193.413 218.281,192.989 218.320,184.738 217.413 C 181.802 217.090,177.510 216.645,175.200 216.423 C 172.890 216.202,166.680 215.567,161.400 215.013 C 143.180 213.100,132.561 211.990,121.000 210.790 C 114.620 210.127,105.170 209.145,100.000 208.607 C 94.830 208.068,87.000 207.264,82.600 206.818 C 78.200 206.373,73.070 205.826,71.200 205.602 C 68.183 205.240,56.157 203.991,49.300 203.327 L 46.800 203.084 46.800 246.319 C 46.800 270.097,46.935 289.630,47.100 289.724 C 47.265 289.818,48.750 289.745,50.400 289.563 C 52.050 289.381,57.810 288.774,63.200 288.215 C 68.590 287.656,79.840 286.488,88.200 285.618 C 96.560 284.749,107.000 283.669,111.400 283.219 C 118.606 282.481,121.846 282.143,134.800 280.773 C 136.890 280.552,141.120 280.112,144.200 279.797 C 147.280 279.481,151.600 279.031,153.800 278.797 C 156.000 278.563,162.030 277.933,167.200 277.397 C 172.370 276.861,180.037 276.064,184.237 275.626 C 195.899 274.410,198.476 276.151,196.444 283.871 C 196.099 285.181,193.284 298.459,190.777 310.600 C 190.368 312.580,188.951 319.321,187.629 325.579 C 186.307 331.838,185.296 337.029,185.382 337.116 C 185.469 337.202,192.798 332.157,201.670 325.904 C 210.541 319.651,227.340 307.818,239.000 299.609 C 250.660 291.399,265.510 280.943,272.000 276.373 C 278.490 271.803,290.536 263.323,298.768 257.527 C 307.001 251.732,313.807 246.779,313.893 246.520 C 313.980 246.261,311.924 244.479,309.325 242.560 C 301.372 236.687,299.230 235.110,292.800 230.392 C 289.390 227.890,284.530 224.318,282.000 222.453 C 279.470 220.589,275.666 217.789,273.547 216.232 C 271.428 214.674,266.757 211.240,263.167 208.600 C 259.576 205.960,254.740 202.404,252.419 200.698 C 250.099 198.992,246.040 196.008,243.400 194.067 C 240.760 192.126,234.100 187.232,228.600 183.191 C 223.100 179.151,216.620 174.385,214.200 172.600 C 184.891 150.991,185.200 151.211,185.200 151.951 " stroke="none" fill="#ab7b4b" fill-rule="evenodd"/>
        <path id="path2" d="" stroke="none" fill="#66492c" fill-rule="evenodd"/>
        <path id="path3" d="M184.800 151.686 C 184.800 152.174,185.156 154.289,185.591 156.386 C 189.038 173.002,196.481 211.701,196.467 212.933 C 196.432 215.917,194.823 217.251,190.800 217.630 L 188.200 217.874 190.947 217.937 C 195.038 218.031,197.165 215.810,196.824 211.800 C 196.747 210.890,190.181 177.047,189.607 174.600 C 188.600 170.306,185.157 151.909,185.329 151.737 C 185.437 151.630,187.329 152.860,189.533 154.471 C 193.791 157.584,206.888 167.209,214.200 172.600 C 216.620 174.385,223.100 179.151,228.600 183.191 C 234.100 187.232,240.760 192.126,243.400 194.067 C 246.040 196.008,250.099 198.992,252.419 200.698 C 254.740 202.404,259.576 205.960,263.167 208.600 C 266.757 211.240,271.428 214.674,273.547 216.232 C 275.666 217.789,279.470 220.589,282.000 222.453 C 284.530 224.318,289.390 227.890,292.800 230.392 C 299.230 235.110,301.372 236.687,309.325 242.560 C 311.924 244.479,313.980 246.261,313.893 246.520 C 313.807 246.779,307.001 251.732,298.768 257.527 C 290.536 263.323,278.490 271.803,272.000 276.373 C 265.510 280.943,250.660 291.399,239.000 299.609 C 227.340 307.818,210.541 319.651,201.670 325.904 C 192.798 332.157,185.469 337.202,185.382 337.116 C 185.296 337.029,186.307 331.838,187.629 325.579 C 188.951 319.321,190.368 312.580,190.777 310.600 C 193.284 298.459,196.099 285.181,196.444 283.871 C 198.476 276.151,195.899 274.410,184.237 275.626 C 166.482 277.478,157.147 278.441,153.200 278.829 C 150.890 279.056,148.820 279.308,148.600 279.389 C 147.803 279.683,150.675 279.585,154.000 279.204 C 155.870 278.990,161.720 278.369,167.000 277.823 C 172.280 277.278,180.098 276.465,184.374 276.018 C 197.678 274.627,197.884 274.969,194.197 292.400 C 186.446 329.048,184.756 337.269,184.893 337.678 C 185.016 338.047,189.968 334.641,217.400 315.320 C 224.000 310.671,248.560 293.382,271.978 276.900 C 295.396 260.418,314.618 246.745,314.695 246.516 C 314.812 246.163,185.609 150.800,185.012 150.800 C 184.895 150.800,184.800 151.199,184.800 151.686 M46.700 203.023 C 46.308 203.429,46.308 289.897,46.700 290.135 C 46.971 290.300,60.672 289.030,62.600 288.662 C 64.782 288.245,59.853 288.534,54.000 289.166 C 50.370 289.558,47.265 289.805,47.100 289.716 C 46.935 289.626,46.800 270.097,46.800 246.319 L 46.800 203.084 49.300 203.327 C 56.157 203.991,68.183 205.240,71.200 205.602 C 73.070 205.826,78.200 206.373,82.600 206.818 C 87.000 207.264,94.830 208.068,100.000 208.607 C 105.170 209.145,114.530 210.118,120.800 210.769 C 134.535 212.196,149.102 213.717,159.400 214.800 C 166.264 215.522,170.002 215.754,168.400 215.359 C 168.070 215.278,164.290 214.857,160.000 214.423 C 142.383 212.641,96.857 207.905,90.400 207.184 C 88.530 206.974,84.210 206.532,80.800 206.200 C 77.390 205.868,73.070 205.416,71.200 205.196 C 68.031 204.821,54.842 203.457,49.400 202.941 C 48.080 202.816,46.865 202.853,46.700 203.023 M171.000 216.018 C 172.100 216.190,173.900 216.319,175.000 216.306 L 177.000 216.282 174.600 215.985 C 171.125 215.553,168.192 215.581,171.000 216.018 M181.200 216.991 C 183.510 217.284,186.030 217.519,186.800 217.512 C 188.922 217.494,184.464 216.898,180.400 216.658 L 177.000 216.456 181.200 216.991 M140.000 280.184 C 137.690 280.458,133.550 280.912,130.800 281.194 C 123.318 281.960,120.859 282.293,122.262 282.349 C 123.391 282.395,129.625 281.770,143.600 280.213 C 146.130 279.931,147.300 279.697,146.200 279.693 C 145.100 279.690,142.310 279.911,140.000 280.184 M113.400 282.988 C 110.980 283.260,103.060 284.094,95.800 284.842 C 88.540 285.589,82.989 286.255,83.463 286.323 C 83.938 286.391,89.608 285.895,96.063 285.221 C 102.519 284.547,110.590 283.716,114.000 283.374 C 117.410 283.031,120.380 282.686,120.600 282.607 C 121.424 282.311,117.648 282.511,113.400 282.988 M72.600 287.224 C 69.080 287.619,65.570 287.969,64.800 288.003 C 64.030 288.036,63.634 288.157,63.920 288.271 C 64.443 288.481,82.056 286.842,82.367 286.554 C 82.689 286.256,78.936 286.513,72.600 287.224 " stroke="none" fill="#7d5734" fill-rule="evenodd"/>
        <path id="path4" d="M46.193 246.600 C 46.193 270.580,46.241 280.449,46.300 268.531 C 46.359 256.613,46.359 236.993,46.300 224.931 C 46.241 212.869,46.193 222.620,46.193 246.600 M190.705 217.483 C 191.202 217.579,191.922 217.575,192.305 217.475 C 192.687 217.375,192.280 217.296,191.400 217.301 C 190.520 217.305,190.207 217.387,190.705 217.483 " stroke="none" fill="#563c24" fill-rule="evenodd"/>
        <path id="path5" d="M184.019 151.100 C 184.042 152.416,186.302 163.283,186.360 162.355 C 186.382 162.000,185.950 159.501,185.400 156.800 C 184.303 151.412,184.206 150.400,184.790 150.400 C 185.123 150.400,238.206 189.285,287.000 225.273 C 289.640 227.220,297.020 232.647,303.400 237.334 C 309.780 242.020,315.000 246.104,315.000 246.410 C 315.000 246.928,301.420 256.561,217.800 315.363 C 180.548 341.559,184.885 338.680,184.422 337.526 C 184.054 336.607,184.051 336.607,184.025 337.476 C 183.961 339.709,183.577 339.924,198.800 329.199 C 235.673 303.219,305.596 254.005,308.400 252.058 C 315.445 247.166,315.947 246.700,315.178 245.774 C 314.908 245.448,308.368 240.537,300.644 234.860 C 292.920 229.183,270.850 212.956,251.600 198.800 C 232.350 184.645,209.541 167.874,200.913 161.531 C 184.825 149.705,183.986 149.187,184.019 151.100 M186.463 163.600 C 186.448 163.930,186.784 165.730,187.208 167.600 C 187.632 169.470,187.887 170.190,187.774 169.200 C 187.539 167.132,186.501 162.701,186.463 163.600 M188.487 174.000 C 188.483 174.550,188.624 175.450,188.800 176.000 C 189.231 177.344,189.231 175.892,188.800 174.200 C 188.526 173.122,188.494 173.102,188.487 174.000 M189.687 180.000 C 189.683 180.550,189.824 181.450,190.000 182.000 C 190.431 183.344,190.431 181.892,190.000 180.200 C 189.726 179.122,189.694 179.102,189.687 180.000 M190.487 184.000 C 190.483 184.550,190.624 185.450,190.800 186.000 C 191.231 187.344,191.231 185.892,190.800 184.200 C 190.526 183.122,190.494 183.102,190.487 184.000 M191.258 187.800 C 191.245 188.240,191.479 189.680,191.776 191.000 C 192.074 192.320,192.329 193.040,192.342 192.600 C 192.355 192.160,192.121 190.720,191.824 189.400 C 191.526 188.080,191.271 187.360,191.258 187.800 M192.480 194.200 C 192.480 194.640,192.624 195.450,192.800 196.000 C 193.054 196.792,193.120 196.833,193.120 196.200 C 193.120 195.760,192.976 194.950,192.800 194.400 C 192.546 193.608,192.480 193.567,192.480 194.200 M193.295 198.000 C 193.295 198.550,193.432 199.540,193.600 200.200 C 193.872 201.270,193.905 201.292,193.905 200.400 C 193.905 199.850,193.768 198.860,193.600 198.200 C 193.328 197.130,193.295 197.108,193.295 198.000 M46.014 202.774 C 45.734 203.297,45.631 217.530,45.696 246.674 L 45.793 289.800 46.001 246.200 C 46.115 222.220,46.252 202.566,46.304 202.525 C 46.357 202.484,46.985 202.378,47.700 202.289 L 49.000 202.128 47.714 202.064 C 46.808 202.019,46.306 202.229,46.014 202.774 M51.200 202.817 C 52.410 202.984,54.120 203.113,55.000 203.104 C 56.383 203.090,56.301 203.046,54.400 202.783 C 53.190 202.616,51.480 202.487,50.600 202.496 C 49.217 202.510,49.299 202.554,51.200 202.817 M57.500 203.482 C 57.995 203.578,58.805 203.578,59.300 203.482 C 59.795 203.387,59.390 203.309,58.400 203.309 C 57.410 203.309,57.005 203.387,57.500 203.482 M60.433 203.752 C 60.525 203.835,62.220 204.001,64.200 204.120 C 66.852 204.280,67.273 204.249,65.800 204.004 C 63.715 203.656,60.144 203.488,60.433 203.752 M194.487 204.400 C 194.483 204.950,194.624 205.850,194.800 206.400 C 195.231 207.744,195.231 206.292,194.800 204.600 C 194.526 203.522,194.494 203.502,194.487 204.400 M70.400 204.817 C 71.610 204.984,73.320 205.113,74.200 205.104 C 75.583 205.090,75.501 205.046,73.600 204.783 C 72.390 204.616,70.680 204.487,69.800 204.496 C 68.417 204.510,68.499 204.554,70.400 204.817 M80.000 205.791 C 82.310 206.084,84.830 206.319,85.600 206.312 C 87.722 206.294,83.264 205.698,79.200 205.458 L 75.800 205.256 80.000 205.791 M89.600 206.817 C 90.810 206.984,92.430 207.115,93.200 207.107 C 94.322 207.096,94.203 207.031,92.600 206.782 C 91.500 206.610,89.880 206.480,89.000 206.491 C 87.607 206.510,87.684 206.552,89.600 206.817 M97.200 207.617 C 98.410 207.784,100.120 207.913,101.000 207.904 C 102.383 207.890,102.301 207.846,100.400 207.583 C 99.190 207.416,97.480 207.287,96.600 207.296 C 95.217 207.310,95.299 207.354,97.200 207.617 M103.705 208.287 C 104.314 208.379,105.214 208.377,105.705 208.282 C 106.197 208.187,105.700 208.111,104.600 208.114 C 103.500 208.117,103.097 208.195,103.705 208.287 M107.705 208.687 C 108.314 208.779,109.214 208.777,109.705 208.682 C 110.197 208.587,109.700 208.511,108.600 208.514 C 107.500 208.517,107.097 208.595,107.705 208.687 M111.505 209.083 C 112.002 209.179,112.722 209.175,113.105 209.075 C 113.487 208.975,113.080 208.896,112.200 208.901 C 111.320 208.905,111.007 208.987,111.505 209.083 M116.400 209.617 C 117.610 209.784,119.410 209.912,120.400 209.902 C 122.044 209.884,121.992 209.857,119.800 209.585 C 118.480 209.421,116.680 209.293,115.800 209.300 C 114.426 209.311,114.511 209.356,116.400 209.617 M195.695 210.400 C 195.695 210.950,195.832 211.940,196.000 212.600 C 196.272 213.670,196.305 213.692,196.305 212.800 C 196.305 212.250,196.168 211.260,196.000 210.600 C 195.728 209.530,195.695 209.508,195.695 210.400 M123.100 210.282 C 123.595 210.378,124.405 210.378,124.900 210.282 C 125.395 210.187,124.990 210.109,124.000 210.109 C 123.010 210.109,122.605 210.187,123.100 210.282 M126.905 210.687 C 127.514 210.779,128.414 210.777,128.905 210.682 C 129.397 210.587,128.900 210.511,127.800 210.514 C 126.700 210.517,126.297 210.595,126.905 210.687 M130.500 211.076 C 130.885 211.176,131.515 211.176,131.900 211.076 C 132.285 210.975,131.970 210.893,131.200 210.893 C 130.430 210.893,130.115 210.975,130.500 211.076 M135.600 211.617 C 136.810 211.784,138.520 211.913,139.400 211.904 C 140.783 211.890,140.701 211.846,138.800 211.583 C 137.590 211.416,135.880 211.287,135.000 211.296 C 133.617 211.310,133.699 211.354,135.600 211.617 M142.105 212.287 C 142.714 212.379,143.614 212.377,144.105 212.282 C 144.597 212.187,144.100 212.111,143.000 212.114 C 141.900 212.117,141.497 212.195,142.105 212.287 M146.105 212.687 C 146.714 212.779,147.614 212.777,148.105 212.682 C 148.597 212.587,148.100 212.511,147.000 212.514 C 145.900 212.517,145.497 212.595,146.105 212.687 M149.905 213.083 C 150.402 213.179,151.122 213.175,151.505 213.075 C 151.887 212.975,151.480 212.896,150.600 212.901 C 149.720 212.905,149.407 212.987,149.905 213.083 M154.800 213.617 C 156.010 213.784,157.810 213.912,158.800 213.902 C 160.444 213.884,160.392 213.857,158.200 213.585 C 156.880 213.421,155.080 213.293,154.200 213.300 C 152.826 213.311,152.911 213.356,154.800 213.617 M161.500 214.282 C 161.995 214.378,162.805 214.378,163.300 214.282 C 163.795 214.187,163.390 214.109,162.400 214.109 C 161.410 214.109,161.005 214.187,161.500 214.282 M195.411 214.764 C 195.148 215.593,193.832 216.591,192.583 216.908 C 191.909 217.079,191.930 217.114,192.731 217.154 C 193.669 217.200,196.000 215.259,196.000 214.431 C 196.000 213.747,195.676 213.930,195.411 214.764 M166.400 214.817 C 167.610 214.984,169.320 215.113,170.200 215.104 C 171.583 215.090,171.501 215.046,169.600 214.783 C 168.390 214.616,166.680 214.487,165.800 214.496 C 164.417 214.510,164.499 214.554,166.400 214.817 M176.000 215.818 C 178.310 216.097,180.920 216.317,181.800 216.307 C 182.680 216.297,181.510 216.060,179.200 215.782 C 176.890 215.503,174.280 215.283,173.400 215.293 C 172.520 215.303,173.690 215.540,176.000 215.818 M185.600 216.817 C 186.810 216.984,188.520 217.113,189.400 217.104 C 190.783 217.090,190.701 217.046,188.800 216.783 C 187.590 216.616,185.880 216.487,185.000 216.496 C 183.617 216.510,183.699 216.554,185.600 216.817 M191.532 275.980 C 194.113 276.392,195.427 277.508,195.979 279.758 L 196.382 281.400 196.203 279.820 C 195.928 277.392,194.238 275.923,191.537 275.765 L 189.400 275.640 191.532 275.980 M186.505 276.287 C 187.114 276.379,188.014 276.377,188.505 276.282 C 188.997 276.187,188.500 276.111,187.400 276.114 C 186.300 276.117,185.897 276.195,186.505 276.287 M182.505 276.687 C 183.114 276.779,184.014 276.777,184.505 276.682 C 184.997 276.587,184.500 276.511,183.400 276.514 C 182.300 276.517,181.897 276.595,182.505 276.687 M175.800 277.200 C 173.891 277.462,173.872 277.476,175.400 277.502 C 176.280 277.517,177.900 277.390,179.000 277.218 C 181.699 276.798,178.850 276.782,175.800 277.200 M171.105 277.883 C 171.602 277.979,172.322 277.975,172.705 277.875 C 173.087 277.775,172.680 277.696,171.800 277.701 C 170.920 277.705,170.607 277.787,171.105 277.883 M164.200 278.400 C 162.308 278.660,162.286 278.675,163.800 278.694 C 164.680 278.704,166.480 278.579,167.800 278.415 L 170.200 278.118 168.200 278.122 C 167.100 278.124,165.300 278.249,164.200 278.400 M156.600 279.200 C 154.700 279.461,154.680 279.475,156.200 279.498 C 157.080 279.510,158.790 279.384,160.000 279.217 C 162.166 278.917,162.172 278.913,160.400 278.919 C 159.410 278.923,157.700 279.049,156.600 279.200 M151.900 279.882 C 152.395 279.978,153.205 279.978,153.700 279.882 C 154.195 279.787,153.790 279.709,152.800 279.709 C 151.810 279.709,151.405 279.787,151.900 279.882 M148.105 280.287 C 148.714 280.379,149.614 280.377,150.105 280.282 C 150.597 280.187,150.100 280.111,149.000 280.114 C 147.900 280.117,147.497 280.195,148.105 280.287 M143.900 280.682 C 144.395 280.778,145.205 280.778,145.700 280.682 C 146.195 280.587,145.790 280.509,144.800 280.509 C 143.810 280.509,143.405 280.587,143.900 280.682 M137.400 281.200 C 135.500 281.461,135.480 281.475,137.000 281.498 C 137.880 281.510,139.590 281.384,140.800 281.217 C 142.966 280.917,142.972 280.913,141.200 280.919 C 140.210 280.923,138.500 281.049,137.400 281.200 M132.700 281.882 C 133.195 281.978,134.005 281.978,134.500 281.882 C 134.995 281.787,134.590 281.709,133.600 281.709 C 132.610 281.709,132.205 281.787,132.700 281.882 M128.905 282.287 C 129.514 282.379,130.414 282.377,130.905 282.282 C 131.397 282.187,130.900 282.111,129.800 282.114 C 128.700 282.117,128.297 282.195,128.905 282.287 M124.905 282.687 C 125.514 282.779,126.414 282.777,126.905 282.682 C 127.397 282.587,126.900 282.511,125.800 282.514 C 124.700 282.517,124.297 282.595,124.905 282.687 M118.200 283.200 C 116.300 283.461,116.280 283.475,117.800 283.498 C 118.680 283.510,120.390 283.384,121.600 283.217 C 123.766 282.917,123.772 282.913,122.000 282.919 C 121.010 282.923,119.300 283.049,118.200 283.200 M113.500 283.882 C 113.995 283.978,114.805 283.978,115.300 283.882 C 115.795 283.787,115.390 283.709,114.400 283.709 C 113.410 283.709,113.005 283.787,113.500 283.882 M109.705 284.287 C 110.314 284.379,111.214 284.377,111.705 284.282 C 112.197 284.187,111.700 284.111,110.600 284.114 C 109.500 284.117,109.097 284.195,109.705 284.287 M105.705 284.687 C 106.314 284.779,107.214 284.777,107.705 284.682 C 108.197 284.587,107.700 284.511,106.600 284.514 C 105.500 284.517,105.097 284.595,105.705 284.687 M99.000 285.200 C 97.100 285.461,97.080 285.475,98.600 285.498 C 99.480 285.510,101.190 285.384,102.400 285.217 C 104.566 284.917,104.572 284.913,102.800 284.919 C 101.810 284.923,100.100 285.049,99.000 285.200 M94.300 285.882 C 94.795 285.978,95.605 285.978,96.100 285.882 C 96.595 285.787,96.190 285.709,95.200 285.709 C 94.210 285.709,93.805 285.787,94.300 285.882 M194.622 287.022 C 194.472 287.825,194.428 288.562,194.526 288.660 C 194.624 288.757,194.827 288.181,194.978 287.378 C 195.128 286.575,195.172 285.838,195.074 285.740 C 194.976 285.643,194.773 286.219,194.622 287.022 M90.505 286.287 C 91.114 286.379,92.014 286.377,92.505 286.282 C 92.997 286.187,92.500 286.111,91.400 286.114 C 90.300 286.117,89.897 286.195,90.505 286.287 M86.505 286.687 C 87.114 286.779,88.014 286.777,88.505 286.682 C 88.997 286.587,88.500 286.511,87.400 286.514 C 86.300 286.517,85.897 286.595,86.505 286.687 M79.800 287.200 C 77.891 287.462,77.872 287.476,79.400 287.502 C 80.280 287.517,81.900 287.390,83.000 287.218 C 85.699 286.798,82.850 286.782,79.800 287.200 M75.100 287.882 C 75.595 287.978,76.405 287.978,76.900 287.882 C 77.395 287.787,76.990 287.709,76.000 287.709 C 75.010 287.709,74.605 287.787,75.100 287.882 M71.305 288.287 C 71.914 288.379,72.814 288.377,73.305 288.282 C 73.797 288.187,73.300 288.111,72.200 288.114 C 71.100 288.117,70.697 288.195,71.305 288.287 M67.305 288.687 C 67.914 288.779,68.814 288.777,69.305 288.682 C 69.797 288.587,69.300 288.511,68.200 288.514 C 67.100 288.517,66.697 288.595,67.305 288.687 M60.600 289.200 C 58.680 289.463,58.664 289.476,60.200 289.508 C 61.080 289.526,62.610 289.397,63.600 289.220 C 65.970 288.799,63.641 288.783,60.600 289.200 M55.900 289.882 C 56.395 289.978,57.205 289.978,57.700 289.882 C 58.195 289.787,57.790 289.709,56.800 289.709 C 55.810 289.709,55.405 289.787,55.900 289.882 M46.000 290.497 C 46.000 290.664,47.125 290.779,48.500 290.754 C 51.202 290.703,50.940 290.512,47.900 290.317 C 46.855 290.249,46.000 290.331,46.000 290.497 M52.105 290.287 C 52.714 290.379,53.614 290.377,54.105 290.282 C 54.597 290.187,54.100 290.111,53.000 290.114 C 51.900 290.117,51.497 290.195,52.105 290.287 M193.400 292.800 C 193.246 293.710,193.204 294.538,193.307 294.640 C 193.410 294.743,193.613 294.077,193.760 293.160 C 193.907 292.243,193.948 291.415,193.853 291.320 C 193.758 291.224,193.554 291.890,193.400 292.800 M192.622 296.622 C 192.472 297.425,192.428 298.162,192.526 298.260 C 192.624 298.357,192.827 297.781,192.978 296.978 C 193.128 296.175,193.172 295.438,193.074 295.340 C 192.976 295.243,192.773 295.819,192.622 296.622 M191.215 303.215 C 190.711 305.645,190.377 307.710,190.472 307.805 C 190.566 307.900,191.054 305.987,191.556 303.556 C 192.057 301.124,192.392 299.058,192.299 298.965 C 192.206 298.873,191.718 300.785,191.215 303.215 M189.627 310.827 C 189.361 312.175,189.222 313.356,189.318 313.451 C 189.413 313.546,189.708 312.521,189.973 311.173 C 190.239 309.825,190.378 308.644,190.282 308.549 C 190.187 308.454,189.892 309.479,189.627 310.827 M188.030 318.430 C 187.542 320.876,187.220 322.954,187.314 323.047 C 187.408 323.141,187.883 321.216,188.370 318.770 C 188.858 316.324,189.180 314.246,189.086 314.153 C 188.992 314.059,188.517 315.984,188.030 318.430 M186.622 325.022 C 186.472 325.825,186.428 326.562,186.526 326.660 C 186.624 326.757,186.827 326.181,186.978 325.378 C 187.128 324.575,187.172 323.838,187.074 323.740 C 186.976 323.643,186.773 324.219,186.622 325.022 M184.827 333.627 C 184.561 334.975,184.422 336.156,184.518 336.251 C 184.613 336.346,184.908 335.321,185.173 333.973 C 185.439 332.625,185.578 331.444,185.482 331.349 C 185.387 331.254,185.092 332.279,184.827 333.627 " stroke="none" fill="#4c3c24" fill-rule="evenodd"/>
      </g>
      <ellipse style="stroke-miterlimit: 1; stroke-width: 12px; fill: rgb(170, 120, 73); paint-order: stroke; fill-opacity: 0; stroke: rgb(170, 120, 73);" cx="250.046" cy="243.375" rx="185.466" ry="166.639"/>
    </g>
  </g>
  <g transform="matrix(1, 0, 0, 1, 355.492044, 4.80001)"/>
  <g transform="matrix(1, 0, 0, 1, 355.492044, 4.80001)"/>
  <g transform="matrix(1, 0, 0, 1, 355.492044, 4.80001)"/>
  <g transform="matrix(1, 0, 0, 1, 355.492044, 4.80001)"/>
  <g transform="matrix(1, 0, 0, 1, 355.492044, 4.80001)"/>
  <g transform="matrix(1, 0, 0, 1, 355.492044, 4.80001)"/>
  <g transform="matrix(1, 0, 0, 1, 355.492044, 4.80001)"/>
  <g transform="matrix(1, 0, 0, 1, 355.492044, 4.80001)"/>
  <g transform="matrix(1, 0, 0, 1, 355.492044, 4.80001)"/>
  <g transform="matrix(1, 0, 0, 1, 355.492044, 4.80001)"/>
  <g transform="matrix(1, 0, 0, 1, 355.492044, 4.80001)"/>
  <g transform="matrix(1, 0, 0, 1, 355.492044, 4.80001)"/>
  <g transform="matrix(1, 0, 0, 1, 355.492044, 4.80001)"/>
  <g transform="matrix(1, 0, 0, 1, 355.492044, 4.80001)"/>
  <g transform="matrix(1, 0, 0, 1, 355.492044, 4.80001)"/>
  <rect x="24.622" y="70.707" width="449.382" height="377.671" style="fill: rgb(216, 216, 216); stroke: rgb(0, 0, 0); stroke-width: 0px; stroke-miterlimit: 1; paint-order: stroke; fill-opacity: 0;"/>
</svg>