<?xml version="1.0" encoding="utf-8"?>
<svg viewBox="214.273 142.052 83.625 53.347" xmlns="http://www.w3.org/2000/svg">
  <path fill-rule="evenodd" clip-rule="evenodd" d="M 228.011 151.101 L 226.586 151.101 C 226.131 151.101 225.743 151.197 225.484 151.484 C 225.224 151.673 225.031 152.054 224.902 152.34 C 224.77 152.721 224.706 153.101 224.643 153.484 C 224.577 153.959 224.577 154.341 224.577 154.626 L 224.577 163.199 C 224.577 164.246 224.447 165.104 224.122 165.771 C 223.8 166.437 223.411 167.01 222.893 167.391 C 222.438 167.771 221.854 168.057 221.336 168.249 C 220.752 168.438 220.234 168.535 219.782 168.535 L 219.782 168.63 C 220.183 168.63 220.638 168.705 221.142 168.788 L 221.336 168.82 C 221.92 168.915 222.438 169.201 222.893 169.582 C 223.345 169.963 223.8 170.535 224.122 171.297 C 224.447 172.059 224.577 173.108 224.577 174.345 L 224.577 182.443 C 224.577 182.823 224.577 183.204 224.643 183.586 C 224.706 184.062 224.77 184.443 224.965 184.728 C 225.095 185.11 225.354 185.395 225.679 185.587 C 226.003 185.776 226.39 185.968 226.974 185.968 L 228.075 185.968 L 228.075 195.399 L 223.475 195.399 C 222.827 195.399 222.179 195.207 221.532 194.922 C 220.884 194.636 220.234 194.16 219.652 193.589 C 219.068 193.016 218.615 192.159 218.225 191.206 C 217.839 190.255 217.707 189.11 217.707 187.777 L 217.707 177.108 C 217.707 176.249 217.58 175.583 217.321 175.108 C 217.059 174.631 216.737 174.25 216.347 173.965 C 215.957 173.678 215.571 173.488 215.18 173.392 C 214.793 173.297 214.469 173.297 214.273 173.297 L 214.273 164.246 C 214.532 164.246 214.793 164.246 215.18 164.153 C 215.571 164.057 215.957 163.962 216.282 163.676 C 216.671 163.39 216.93 163.104 217.255 162.629 C 217.58 162.152 217.643 161.579 217.643 160.819 L 217.643 149.673 C 217.643 148.34 217.839 147.196 218.162 146.242 C 218.55 145.292 219.005 144.529 219.586 143.862 C 220.17 143.289 220.752 142.813 221.466 142.528 C 222.115 142.242 222.762 142.052 223.411 142.052 L 228.011 142.052 L 228.011 151.101 Z M 284.161 151.101 L 285.587 151.101 C 286.039 151.101 286.429 151.197 286.689 151.484 C 286.948 151.673 287.143 152.054 287.271 152.34 C 287.402 152.721 287.466 153.101 287.53 153.484 C 287.596 153.959 287.596 154.341 287.596 154.626 L 287.596 163.199 C 287.596 164.246 287.725 165.104 288.048 165.771 C 288.373 166.437 288.762 167.01 289.28 167.391 C 289.734 167.771 290.316 168.057 290.835 168.249 C 291.418 168.438 291.939 168.535 292.391 168.535 L 292.391 168.63 C 291.99 168.63 291.535 168.705 291.03 168.788 L 290.835 168.82 C 290.253 168.915 289.734 169.201 289.28 169.582 C 288.828 169.963 288.373 170.535 288.048 171.297 C 287.725 172.059 287.596 173.108 287.596 174.345 L 287.596 182.443 C 287.596 182.823 287.596 183.204 287.53 183.586 C 287.466 184.062 287.402 184.443 287.207 184.728 C 287.078 185.11 286.819 185.395 286.495 185.587 C 286.171 185.776 285.781 185.968 285.198 185.968 L 284.096 185.968 L 284.096 195.399 L 288.698 195.399 C 289.346 195.399 289.993 195.207 290.641 194.922 C 291.289 194.636 291.939 194.16 292.52 193.589 C 293.103 193.016 293.557 192.159 293.945 191.206 C 294.334 190.255 294.466 189.11 294.466 187.777 L 294.466 177.108 C 294.466 176.249 294.593 175.583 294.852 175.108 C 295.111 174.631 295.436 174.25 295.825 173.965 C 296.213 173.678 296.603 173.488 296.993 173.392 C 297.379 173.297 297.704 173.297 297.898 173.297 L 297.898 164.246 C 297.638 164.246 297.379 164.246 296.993 164.153 C 296.603 164.057 296.213 163.962 295.889 163.676 C 295.502 163.39 295.243 163.104 294.918 162.629 C 294.593 162.152 294.529 161.579 294.529 160.819 L 294.529 149.673 C 294.529 148.34 294.334 147.196 294.011 146.242 C 293.623 145.292 293.168 144.529 292.584 143.862 C 292.002 143.289 291.418 142.813 290.707 142.528 C 290.057 142.242 289.409 142.052 288.762 142.052 L 284.161 142.052 L 284.161 151.101 Z M 269.826 175.737 L 243.022 143.956 L 236.646 143.956 L 236.646 151.515 L 263.453 183.295 L 258.675 188.955 L 261.853 192.719 L 267.349 186.124 L 274.604 194.589 C 275.48 195.632 276.9 195.632 277.779 194.589 L 279.379 192.694 C 280.258 191.653 280.258 189.969 279.379 188.928 L 272.215 180.437 L 277.779 173.839 L 274.604 170.075 L 269.826 175.737 Z M 275.527 151.489 L 264.85 164.145 L 258.474 156.615 L 269.151 143.956 L 275.527 143.956 L 275.527 151.489 Z M 247.323 169.834 L 253.699 177.499 L 248.72 183.295 L 253.495 188.955 L 250.32 192.719 L 244.823 186.124 L 237.569 194.618 C 236.69 195.658 235.273 195.658 234.394 194.618 L 232.794 192.719 C 231.915 191.679 231.915 189.998 232.794 188.955 L 239.958 180.437 L 234.394 173.839 L 237.569 170.075 L 242.344 175.737 L 247.323 169.834 Z" style="fill-rule: nonzero;"/>
</svg>