<?xml version="1.0" encoding="utf-8"?>
<svg viewBox="39.592 215.833 717.357 56.898" xmlns="http://www.w3.org/2000/svg">
  <path fill="#cc0c2f" d="M 381.62 231.509 L 411.516 231.509 L 411.516 259.191 L 381.62 259.191 L 381.62 231.509 Z" style=""/>
  <path fill="#fff" d="M 351.76 231.61 L 381.656 231.61 L 381.656 259.242 L 351.76 259.242 L 351.76 231.61 Z" style=""/>
  <path d="M 349.933 216.577 L 409.689 216.577 L 409.689 230.341 L 349.933 230.341 L 349.933 216.577 Z M 349.933 257.922 L 409.689 257.922 L 409.689 271.738 L 349.933 271.738 L 349.933 257.922 Z M 72.081 223.689 L 58.646 223.689 L 58.646 271.789 L 53.026 271.789 L 53.026 223.689 L 39.592 223.689 L 39.592 216.577 L 72.009 216.577 L 72.081 223.689 Z M 113.395 215.86 C 128.742 214.933 139.04 237.956 131.932 257.301 C 128.351 267.047 121.126 272.972 113.395 272.505 C 98.048 273.432 87.749 250.409 94.858 231.064 C 98.44 221.318 105.664 215.393 113.395 215.86 Z M 113.395 265.239 C 121.761 265.711 128.69 256.101 128.559 244.208 C 128.824 232.229 121.82 222.49 113.395 223.126 C 104.984 222.523 98.004 232.25 98.266 244.208 C 98.026 256.146 104.999 265.841 113.395 265.239 Z M 196.743 271.789 L 191.16 271.789 L 191.16 228.806 L 179.202 250.195 L 178.302 250.195 L 166.199 228.806 L 166.199 271.789 L 160.508 271.789 L 160.508 216.577 L 165.767 216.577 L 178.662 239.245 L 191.557 216.577 L 196.743 216.577 L 196.743 271.789 Z M 264.567 271.789 L 258.985 271.789 L 258.985 228.806 L 247.027 250.195 L 245.946 250.195 L 234.023 228.806 L 234.023 271.789 L 228.296 271.789 L 228.296 216.577 L 233.555 216.577 L 246.449 239.245 L 259.38 216.577 L 264.567 216.577 L 264.567 271.789 Z M 316.471 216.577 L 323.206 216.577 L 308.799 242.622 L 308.799 271.738 L 303.181 271.738 L 303.181 242.571 L 288.772 216.577 L 295.508 216.577 L 305.917 235.612 L 316.471 216.577 Z M 474.235 271.789 L 468.652 271.789 L 468.652 247.739 L 447.041 247.739 L 447.041 271.789 L 441.458 271.789 L 441.458 216.577 L 447.041 216.577 L 447.041 240.626 L 468.652 240.626 L 468.652 216.577 L 474.235 216.577 L 474.235 271.789 Z M 502.979 271.789 L 497.396 271.789 L 497.396 216.577 L 502.979 216.577 L 502.979 271.789 Z M 531.47 264.676 L 549.011 264.676 L 549.011 271.789 L 525.886 271.789 L 525.886 216.577 L 531.47 216.577 L 531.47 264.676 Z M 585.786 223.689 L 570.622 223.689 L 570.622 239.04 L 585.786 239.04 L 585.786 246.152 L 570.622 246.152 L 570.622 271.738 L 565.04 271.738 L 565.04 216.577 L 585.786 216.577 L 585.786 223.689 Z M 610.928 271.789 L 605.345 271.789 L 605.345 216.577 L 610.928 216.577 L 610.928 271.789 Z M 664.092 268.002 C 659.461 271.081 654.401 272.637 649.288 272.557 C 638.013 273.411 628.556 260.608 628.613 244.566 C 628.567 228.382 637.974 215.368 649.361 215.86 C 654.162 215.917 658.893 217.527 663.192 220.567 L 663.192 228.551 C 658.977 225.114 654.219 223.249 649.361 223.126 C 637.938 222.856 630.593 240.253 636.14 254.441 C 638.932 261.584 644.379 265.792 650.116 265.239 C 652.99 265.142 655.835 264.4 658.545 263.039 L 658.545 251.73 L 651.089 251.73 L 651.089 244.618 L 664.128 244.618 L 664.092 268.002 Z M 707.387 223.689 L 690.927 223.689 L 690.927 240.319 L 706.991 240.319 L 706.991 247.483 L 691.106 247.483 L 691.106 264.625 L 708.072 264.625 L 708.072 271.738 L 685.379 271.738 L 685.379 216.577 L 707.423 216.577 L 707.387 223.689 Z M 736.778 216.577 C 744.631 216.577 749.53 222.512 749.53 231.928 C 749.672 237.972 747.03 243.446 743.01 245.436 C 746.652 249.586 749.604 254.829 751.655 260.787 C 753.312 264.575 754.284 266.467 756.949 271.687 L 750.214 271.687 L 745.099 260.378 C 739.984 249.07 737.643 247.739 734.797 247.739 L 732.456 247.739 L 732.456 271.687 L 726.873 271.687 L 726.873 216.577 L 736.778 216.577 Z M 732.564 240.677 L 736.167 240.677 C 742.145 240.677 743.875 236.328 743.802 231.671 C 743.731 227.015 741.569 223.331 736.167 223.331 L 732.564 223.331 L 732.564 240.677 Z" style="fill: rgb(91, 92, 96);"/>
  <rect x="351.165" y="258.726" width="60.284" height="14.005" style="stroke: rgb(0, 0, 0); fill: rgb(0, 23, 79);"/>
  <rect x="350.948" y="216.814" width="60.284" height="14.005" style="stroke: rgb(0, 0, 0); fill: rgb(0, 23, 79);"/>
</svg>